<?xml version="1.0" encoding="utf-8" standalone="no"?>
<!DOCTYPE svg PUBLIC "-//W3C//DTD SVG 1.1//EN"
  "http://www.w3.org/Graphics/SVG/1.1/DTD/svg11.dtd">
<svg xmlns:xlink="http://www.w3.org/1999/xlink" width="394.423125pt" height="85.086422pt" viewBox="0 0 394.423125 85.086422" xmlns="http://www.w3.org/2000/svg" version="1.1">
 <metadata>
  <rdf:RDF xmlns:dc="http://purl.org/dc/elements/1.1/" xmlns:cc="http://creativecommons.org/ns#" xmlns:rdf="http://www.w3.org/1999/02/22-rdf-syntax-ns#">
   <cc:Work>
    <dc:type rdf:resource="http://purl.org/dc/dcmitype/StillImage"/>
    <dc:date>2024-04-23T10:46:00.900341</dc:date>
    <dc:format>image/svg+xml</dc:format>
    <dc:creator>
     <cc:Agent>
      <dc:title>Matplotlib v3.8.0, https://matplotlib.org/</dc:title>
     </cc:Agent>
    </dc:creator>
   </cc:Work>
  </rdf:RDF>
 </metadata>
 <defs>
  <style type="text/css">*{stroke-linejoin: round; stroke-linecap: butt}</style>
 </defs>
 <g id="figure_1">
  <g id="patch_1">
   <path d="M 0 85.086422 
L 394.423125 85.086422 
L 394.423125 -0 
L 0 -0 
z
" style="fill: #ffffff"/>
  </g>
  <g id="axes_1">
   <g id="patch_2">
    <path d="M 30.103125 61.208297 
L 387.223125 61.208297 
L 387.223125 7.2 
L 30.103125 7.2 
z
" style="fill: #ffffff"/>
   </g>
   <g id="matplotlib.axis_1">
    <g id="xtick_1">
     <g id="line2d_1">
      <defs>
       <path id="mbcf7067bde" d="M 0 0 
L 0 3.5 
" style="stroke: #000000; stroke-width: 0.8"/>
      </defs>
      <g>
       <use xlink:href="#mbcf7067bde" x="46.335852" y="61.208297" style="stroke: #000000; stroke-width: 0.8"/>
      </g>
     </g>
     <g id="text_1">
      <!-- −3 -->
      <g transform="translate(38.964759 75.806735) scale(0.1 -0.1)">
       <defs>
        <path id="DejaVuSans-2212" d="M 678 2272 
L 4684 2272 
L 4684 1741 
L 678 1741 
L 678 2272 
z
" transform="scale(0.015625)"/>
        <path id="DejaVuSans-33" d="M 2597 2516 
Q 3050 2419 3304 2112 
Q 3559 1806 3559 1356 
Q 3559 666 3084 287 
Q 2609 -91 1734 -91 
Q 1441 -91 1130 -33 
Q 819 25 488 141 
L 488 750 
Q 750 597 1062 519 
Q 1375 441 1716 441 
Q 2309 441 2620 675 
Q 2931 909 2931 1356 
Q 2931 1769 2642 2001 
Q 2353 2234 1838 2234 
L 1294 2234 
L 1294 2753 
L 1863 2753 
Q 2328 2753 2575 2939 
Q 2822 3125 2822 3475 
Q 2822 3834 2567 4026 
Q 2313 4219 1838 4219 
Q 1578 4219 1281 4162 
Q 984 4106 628 3988 
L 628 4550 
Q 988 4650 1302 4700 
Q 1616 4750 1894 4750 
Q 2613 4750 3031 4423 
Q 3450 4097 3450 3541 
Q 3450 3153 3228 2886 
Q 3006 2619 2597 2516 
z
" transform="scale(0.015625)"/>
       </defs>
       <use xlink:href="#DejaVuSans-2212"/>
       <use xlink:href="#DejaVuSans-33" x="83.789062"/>
      </g>
     </g>
    </g>
    <g id="xtick_2">
     <g id="line2d_2">
      <g>
       <use xlink:href="#mbcf7067bde" x="100.444943" y="61.208297" style="stroke: #000000; stroke-width: 0.8"/>
      </g>
     </g>
     <g id="text_2">
      <!-- −2 -->
      <g transform="translate(93.073849 75.806735) scale(0.1 -0.1)">
       <defs>
        <path id="DejaVuSans-32" d="M 1228 531 
L 3431 531 
L 3431 0 
L 469 0 
L 469 531 
Q 828 903 1448 1529 
Q 2069 2156 2228 2338 
Q 2531 2678 2651 2914 
Q 2772 3150 2772 3378 
Q 2772 3750 2511 3984 
Q 2250 4219 1831 4219 
Q 1534 4219 1204 4116 
Q 875 4013 500 3803 
L 500 4441 
Q 881 4594 1212 4672 
Q 1544 4750 1819 4750 
Q 2544 4750 2975 4387 
Q 3406 4025 3406 3419 
Q 3406 3131 3298 2873 
Q 3191 2616 2906 2266 
Q 2828 2175 2409 1742 
Q 1991 1309 1228 531 
z
" transform="scale(0.015625)"/>
       </defs>
       <use xlink:href="#DejaVuSans-2212"/>
       <use xlink:href="#DejaVuSans-32" x="83.789062"/>
      </g>
     </g>
    </g>
    <g id="xtick_3">
     <g id="line2d_3">
      <g>
       <use xlink:href="#mbcf7067bde" x="154.554034" y="61.208297" style="stroke: #000000; stroke-width: 0.8"/>
      </g>
     </g>
     <g id="text_3">
      <!-- −1 -->
      <g transform="translate(147.18294 75.806735) scale(0.1 -0.1)">
       <defs>
        <path id="DejaVuSans-31" d="M 794 531 
L 1825 531 
L 1825 4091 
L 703 3866 
L 703 4441 
L 1819 4666 
L 2450 4666 
L 2450 531 
L 3481 531 
L 3481 0 
L 794 0 
L 794 531 
z
" transform="scale(0.015625)"/>
       </defs>
       <use xlink:href="#DejaVuSans-2212"/>
       <use xlink:href="#DejaVuSans-31" x="83.789062"/>
      </g>
     </g>
    </g>
    <g id="xtick_4">
     <g id="line2d_4">
      <g>
       <use xlink:href="#mbcf7067bde" x="208.663125" y="61.208297" style="stroke: #000000; stroke-width: 0.8"/>
      </g>
     </g>
     <g id="text_4">
      <!-- 0 -->
      <g transform="translate(205.481875 75.806735) scale(0.1 -0.1)">
       <defs>
        <path id="DejaVuSans-30" d="M 2034 4250 
Q 1547 4250 1301 3770 
Q 1056 3291 1056 2328 
Q 1056 1369 1301 889 
Q 1547 409 2034 409 
Q 2525 409 2770 889 
Q 3016 1369 3016 2328 
Q 3016 3291 2770 3770 
Q 2525 4250 2034 4250 
z
M 2034 4750 
Q 2819 4750 3233 4129 
Q 3647 3509 3647 2328 
Q 3647 1150 3233 529 
Q 2819 -91 2034 -91 
Q 1250 -91 836 529 
Q 422 1150 422 2328 
Q 422 3509 836 4129 
Q 1250 4750 2034 4750 
z
" transform="scale(0.015625)"/>
       </defs>
       <use xlink:href="#DejaVuSans-30"/>
      </g>
     </g>
    </g>
    <g id="xtick_5">
     <g id="line2d_5">
      <g>
       <use xlink:href="#mbcf7067bde" x="262.772216" y="61.208297" style="stroke: #000000; stroke-width: 0.8"/>
      </g>
     </g>
     <g id="text_5">
      <!-- 1 -->
      <g transform="translate(259.590966 75.806735) scale(0.1 -0.1)">
       <use xlink:href="#DejaVuSans-31"/>
      </g>
     </g>
    </g>
    <g id="xtick_6">
     <g id="line2d_6">
      <g>
       <use xlink:href="#mbcf7067bde" x="316.881307" y="61.208297" style="stroke: #000000; stroke-width: 0.8"/>
      </g>
     </g>
     <g id="text_6">
      <!-- 2 -->
      <g transform="translate(313.700057 75.806735) scale(0.1 -0.1)">
       <use xlink:href="#DejaVuSans-32"/>
      </g>
     </g>
    </g>
    <g id="xtick_7">
     <g id="line2d_7">
      <g>
       <use xlink:href="#mbcf7067bde" x="370.990398" y="61.208297" style="stroke: #000000; stroke-width: 0.8"/>
      </g>
     </g>
     <g id="text_7">
      <!-- 3 -->
      <g transform="translate(367.809148 75.806735) scale(0.1 -0.1)">
       <use xlink:href="#DejaVuSans-33"/>
      </g>
     </g>
    </g>
   </g>
   <g id="matplotlib.axis_2">
    <g id="ytick_1">
     <g id="line2d_8">
      <defs>
       <path id="mf8db76407d" d="M 0 0 
L -3.5 0 
" style="stroke: #000000; stroke-width: 0.8"/>
      </defs>
      <g>
       <use xlink:href="#mf8db76407d" x="30.103125" y="61.197843" style="stroke: #000000; stroke-width: 0.8"/>
      </g>
     </g>
     <g id="text_8">
      <!-- 0.0 -->
      <g transform="translate(7.2 64.997061) scale(0.1 -0.1)">
       <defs>
        <path id="DejaVuSans-2e" d="M 684 794 
L 1344 794 
L 1344 0 
L 684 0 
L 684 794 
z
" transform="scale(0.015625)"/>
       </defs>
       <use xlink:href="#DejaVuSans-30"/>
       <use xlink:href="#DejaVuSans-2e" x="63.623047"/>
       <use xlink:href="#DejaVuSans-30" x="95.410156"/>
      </g>
     </g>
    </g>
    <g id="ytick_2">
     <g id="line2d_9">
      <g>
       <use xlink:href="#mf8db76407d" x="30.103125" y="34.143297" style="stroke: #000000; stroke-width: 0.8"/>
      </g>
     </g>
     <g id="text_9">
      <!-- 0.5 -->
      <g transform="translate(7.2 37.942516) scale(0.1 -0.1)">
       <defs>
        <path id="DejaVuSans-35" d="M 691 4666 
L 3169 4666 
L 3169 4134 
L 1269 4134 
L 1269 2991 
Q 1406 3038 1543 3061 
Q 1681 3084 1819 3084 
Q 2600 3084 3056 2656 
Q 3513 2228 3513 1497 
Q 3513 744 3044 326 
Q 2575 -91 1722 -91 
Q 1428 -91 1123 -41 
Q 819 9 494 109 
L 494 744 
Q 775 591 1075 516 
Q 1375 441 1709 441 
Q 2250 441 2565 725 
Q 2881 1009 2881 1497 
Q 2881 1984 2565 2268 
Q 2250 2553 1709 2553 
Q 1456 2553 1204 2497 
Q 953 2441 691 2322 
L 691 4666 
z
" transform="scale(0.015625)"/>
       </defs>
       <use xlink:href="#DejaVuSans-30"/>
       <use xlink:href="#DejaVuSans-2e" x="63.623047"/>
       <use xlink:href="#DejaVuSans-35" x="95.410156"/>
      </g>
     </g>
    </g>
   </g>
   <g id="line2d_10">
    <path d="M 46.335852 58.631672 
L 49.615191 58.479392 
L 52.89453 58.31858 
L 56.173869 58.14882 
L 59.453208 57.969682 
L 62.732546 57.780723 
L 66.011885 57.58149 
L 69.291224 57.371518 
L 72.570563 57.150331 
L 75.849902 56.917446 
L 79.129241 56.672374 
L 82.40858 56.414616 
L 85.687918 56.143675 
L 88.967257 55.859046 
L 92.246596 55.560231 
L 95.525935 55.246732 
L 98.805274 54.918059 
L 102.084613 54.57373 
L 105.363951 54.213278 
L 108.64329 53.836253 
L 111.922629 53.442225 
L 115.201968 53.030792 
L 118.481307 52.60158 
L 121.760646 52.154251 
L 125.039985 51.688508 
L 128.319323 51.204099 
L 131.598662 50.700821 
L 134.878001 50.17853 
L 138.15734 49.63714 
L 141.436679 49.076633 
L 144.716018 48.497062 
L 147.995356 47.898558 
L 151.274695 47.281328 
L 154.554034 46.645667 
L 157.833373 45.991955 
L 161.112712 45.320665 
L 164.392051 44.632358 
L 167.671389 43.927691 
L 170.950728 43.207413 
L 174.230067 42.472363 
L 177.509406 41.723474 
L 180.788745 40.961764 
L 184.068084 40.188333 
L 187.347423 39.40436 
L 190.626761 38.611096 
L 193.9061 37.809855 
L 197.185439 37.002008 
L 200.464778 36.188972 
L 203.744117 35.372203 
L 207.023456 34.553183 
L 210.302794 33.733411 
L 213.582133 32.914391 
L 216.861472 32.097622 
L 220.140811 31.284587 
L 223.42015 30.476739 
L 226.699489 29.675498 
L 229.978827 28.882234 
L 233.258166 28.098261 
L 236.537505 27.32483 
L 239.816844 26.56312 
L 243.096183 25.814231 
L 246.375522 25.079182 
L 249.654861 24.358903 
L 252.934199 23.654236 
L 256.213538 22.965929 
L 259.492877 22.294639 
L 262.772216 21.640928 
L 266.051555 21.005266 
L 269.330894 20.388037 
L 272.610232 19.789532 
L 275.889571 19.209961 
L 279.16891 18.649455 
L 282.448249 18.108064 
L 285.727588 17.585773 
L 289.006927 17.082495 
L 292.286265 16.598086 
L 295.565604 16.132343 
L 298.844943 15.685015 
L 302.124282 15.255803 
L 305.403621 14.844369 
L 308.68296 14.450342 
L 311.962299 14.073316 
L 315.241637 13.712864 
L 318.520976 13.368535 
L 321.800315 13.039862 
L 325.079654 12.726363 
L 328.358993 12.427548 
L 331.638332 12.14292 
L 334.91767 11.871978 
L 338.197009 11.614221 
L 341.476348 11.369148 
L 344.755687 11.136263 
L 348.035026 10.915077 
L 351.314365 10.705104 
L 354.593704 10.505871 
L 357.873042 10.316912 
L 361.152381 10.137774 
L 364.43172 9.968014 
L 367.711059 9.807202 
L 370.990398 9.654923 
" clip-path="url(#pc285f44e7c)" style="fill: none; stroke: #1f77b4; stroke-width: 1.5; stroke-linecap: square"/>
   </g>
   <g id="line2d_11">
    <path d="M 46.335852 58.753375 
L 49.615191 58.615967 
L 52.89453 58.471792 
L 56.173869 58.320631 
L 59.453208 58.162275 
L 62.732546 57.996523 
L 66.011885 57.823187 
L 69.291224 57.642096 
L 72.570563 57.453096 
L 75.849902 57.256055 
L 79.129241 57.050866 
L 82.40858 56.837452 
L 85.687918 56.615769 
L 88.967257 56.385811 
L 92.246596 56.147613 
L 95.525935 55.901257 
L 98.805274 55.646877 
L 102.084613 55.384663 
L 105.363951 55.114867 
L 108.64329 54.837803 
L 111.922629 54.553861 
L 115.201968 54.2635 
L 118.481307 53.96726 
L 121.760646 53.665763 
L 125.039985 53.359714 
L 128.319323 53.049906 
L 131.598662 52.737216 
L 134.878001 52.422612 
L 138.15734 52.107147 
L 141.436679 51.791957 
L 144.716018 51.478259 
L 147.995356 51.167343 
L 151.274695 50.860567 
L 154.554034 50.55935 
L 157.833373 50.265156 
L 161.112712 49.97949 
L 164.392051 49.703877 
L 167.671389 49.439854 
L 170.950728 49.18895 
L 174.230067 48.952671 
L 177.509406 48.732482 
L 180.788745 48.529788 
L 184.068084 48.345918 
L 187.347423 48.182107 
L 190.626761 48.039477 
L 193.9061 47.919024 
L 197.185439 47.821602 
L 200.464778 47.74791 
L 203.744117 47.69848 
L 207.023456 47.673675 
L 210.302794 47.673675 
L 213.582133 47.69848 
L 216.861472 47.74791 
L 220.140811 47.821602 
L 223.42015 47.919024 
L 226.699489 48.039477 
L 229.978827 48.182107 
L 233.258166 48.345918 
L 236.537505 48.529788 
L 239.816844 48.732482 
L 243.096183 48.952671 
L 246.375522 49.18895 
L 249.654861 49.439854 
L 252.934199 49.703877 
L 256.213538 49.97949 
L 259.492877 50.265156 
L 262.772216 50.55935 
L 266.051555 50.860567 
L 269.330894 51.167343 
L 272.610232 51.478259 
L 275.889571 51.791957 
L 279.16891 52.107147 
L 282.448249 52.422612 
L 285.727588 52.737216 
L 289.006927 53.049906 
L 292.286265 53.359714 
L 295.565604 53.665763 
L 298.844943 53.96726 
L 302.124282 54.2635 
L 305.403621 54.553861 
L 308.68296 54.837803 
L 311.962299 55.114867 
L 315.241637 55.384663 
L 318.520976 55.646877 
L 321.800315 55.901257 
L 325.079654 56.147613 
L 328.358993 56.385811 
L 331.638332 56.615769 
L 334.91767 56.837452 
L 338.197009 57.050866 
L 341.476348 57.256055 
L 344.755687 57.453096 
L 348.035026 57.642096 
L 351.314365 57.823187 
L 354.593704 57.996523 
L 357.873042 58.162275 
L 361.152381 58.320631 
L 364.43172 58.471792 
L 367.711059 58.615967 
L 370.990398 58.753375 
" clip-path="url(#pc285f44e7c)" style="fill: none; stroke: #ff7f0e; stroke-width: 1.5; stroke-linecap: square"/>
   </g>
   <g id="patch_3">
    <path d="M 30.103125 61.208297 
L 30.103125 7.2 
" style="fill: none; stroke: #000000; stroke-width: 0.8; stroke-linejoin: miter; stroke-linecap: square"/>
   </g>
   <g id="patch_4">
    <path d="M 387.223125 61.208297 
L 387.223125 7.2 
" style="fill: none; stroke: #000000; stroke-width: 0.8; stroke-linejoin: miter; stroke-linecap: square"/>
   </g>
   <g id="patch_5">
    <path d="M 30.103125 61.208297 
L 387.223125 61.208297 
" style="fill: none; stroke: #000000; stroke-width: 0.8; stroke-linejoin: miter; stroke-linecap: square"/>
   </g>
   <g id="patch_6">
    <path d="M 30.103125 7.2 
L 387.223125 7.2 
" style="fill: none; stroke: #000000; stroke-width: 0.8; stroke-linejoin: miter; stroke-linecap: square"/>
   </g>
  </g>
 </g>
 <defs>
  <clipPath id="pc285f44e7c">
   <rect x="30.103125" y="7.2" width="357.12" height="54.008297"/>
  </clipPath>
 </defs>
</svg>
